<svg xmlns = "http://www.w3.org/2000/svg" width = "1000" height = "1000">
<g>
<polygon points = "674.559, 495.387 687.674, 492.331 682.640, 576.783 600.120, 659.219 552.139, 609.967 "
fill = "none" stroke = "black"/>
</g>
<g>
<polygon points = "872.503, 785.127 861.994, 791.137 783.902, 754.726 770.666, 650.198 841.848, 671.175 883.316, 733.256 "
fill = "none" stroke = "black"/>
</g>
<g>
<polygon points = "224.322, 663.101 129.402, 590.661 234.265, 528.802 275.431, 544.102 230.842, 664.601 "
fill = "none" stroke = "black"/>
</g>
<g>
<polygon points = "320.692, 536.382 339.959, 522.019 369.213, 518.692 425.753, 576.799 429.780, 619.701 420.848, 648.005 391.056, 668.166 358.955, 640.792 "
fill = "none" stroke = "black"/>
</g>
<g>
<polygon points = "747.486, 826.477 748.050, 826.256 802.542, 909.957 779.743, 996.504 689.441, 932.058 "
fill = "none" stroke = "black"/>
</g>
<g>
<polygon points = "228.248, 160.103 237.703, 100.620 252.903, 85.136 345.015, 76.854 363.512, 130.986 317.258, 175.547 "
fill = "none" stroke = "black"/>
</g>
<g>
<polygon points = "599.583, 662.338 570.770, 687.948 435.164, 661.080 420.848, 648.005 429.780, 619.701 506.567, 602.233 552.139, 609.967 600.120, 659.219 "
fill = "none" stroke = "black"/>
</g>
<g>
<polygon points = "613.520, 904.995 689.441, 932.058 779.743, 996.504 780.348, 1000.000 601.118, 1000.000 "
fill = "none" stroke = "black"/>
</g>
<g>
<polygon points = "240.089, 373.417 239.817, 370.853 252.912, 353.768 385.295, 447.948 369.213, 518.692 339.959, 522.019 "
fill = "none" stroke = "black"/>
</g>
<g>
<polygon points = "627.635, 421.371 698.430, 351.288 800.176, 351.294 809.460, 361.775 679.742, 461.544 "
fill = "none" stroke = "black"/>
</g>
<g>
<polygon points = "456.211, 207.589 455.994, 205.740 562.616, 106.974 620.472, 109.208 648.690, 145.825 591.881, 189.663 "
fill = "none" stroke = "black"/>
</g>
<g>
<polygon points = "846.129, 270.729 838.930, 261.098 960.053, 196.733 1000.000, 210.654 1000.000, 300.522 "
fill = "none" stroke = "black"/>
</g>
<g>
<polygon points = "842.592, 436.737 862.434, 519.644 861.813, 520.464 782.199, 561.864 727.792, 488.468 835.028, 429.431 "
fill = "none" stroke = "black"/>
</g>
<g>
<polygon points = "694.517, 159.075 762.063, 132.211 788.122, 177.732 786.107, 208.431 758.116, 255.768 674.501, 248.082 "
fill = "none" stroke = "black"/>
</g>
<g>
<polygon points = "770.745, 67.798 654.826, 74.529 632.838, 0.000 798.240, 0.000 "
fill = "none" stroke = "black"/>
</g>
<g>
<polygon points = "15.527, 994.524 177.170, 945.242 276.412, 948.174 269.988, 1000.000 11.959, 1000.000 "
fill = "none" stroke = "black"/>
</g>
<g>
<polygon points = "916.951, 85.192 867.570, 0.000 1000.000, 0.000 1000.000, 104.967 "
fill = "none" stroke = "black"/>
</g>
<g>
<polygon points = "881.073, 159.481 960.053, 196.733 838.930, 261.098 786.107, 208.431 788.122, 177.732 "
fill = "none" stroke = "black"/>
</g>
<g>
<polygon points = "594.174, 789.349 689.075, 733.564 747.869, 815.853 748.050, 826.256 747.486, 826.477 604.758, 839.274 "
fill = "none" stroke = "black"/>
</g>
<g>
<polygon points = "844.469, 377.721 835.028, 429.431 727.792, 488.468 691.139, 488.510 679.742, 461.544 809.460, 361.775 "
fill = "none" stroke = "black"/>
</g>
<g>
<polygon points = "991.169, 622.934 932.031, 724.534 883.316, 733.256 841.848, 671.175 858.900, 636.904 "
fill = "none" stroke = "black"/>
</g>
<g>
<polygon points = "338.863, 730.996 253.369, 736.019 234.040, 668.729 358.955, 640.792 391.056, 668.166 "
fill = "none" stroke = "black"/>
</g>
<g>
<polygon points = "122.346, 44.328 133.722, 168.382 125.032, 173.336 75.835, 160.889 47.673, 0.000 88.023, 0.000 "
fill = "none" stroke = "black"/>
</g>
<g>
<polygon points = "485.046, 829.845 429.082, 862.191 420.106, 862.819 388.579, 807.410 447.039, 702.729 497.695, 774.894 "
fill = "none" stroke = "black"/>
</g>
<g>
<polygon points = "89.000, 588.543 68.944, 490.297 69.857, 490.149 230.837, 517.786 234.265, 528.802 129.402, 590.661 105.883, 591.156 "
fill = "none" stroke = "black"/>
</g>
<g>
<polygon points = "758.116, 255.768 786.107, 208.431 838.930, 261.098 846.129, 270.729 868.032, 367.084 844.469, 377.721 809.460, 361.775 800.176, 351.294 "
fill = "none" stroke = "black"/>
</g>
<g>
<polygon points = "336.908, 299.304 270.059, 294.540 264.925, 288.634 339.704, 216.087 449.639, 257.633 455.619, 276.518 433.182, 297.369 "
fill = "none" stroke = "black"/>
</g>
<g>
<polygon points = "530.897, 77.746 458.680, 72.155 388.414, 15.408 389.449, 0.000 569.992, 0.000 "
fill = "none" stroke = "black"/>
</g>
<g>
<polygon points = "388.414, 15.408 458.680, 72.155 426.188, 165.601 363.512, 130.986 345.015, 76.854 "
fill = "none" stroke = "black"/>
</g>
<g>
<polygon points = "340.850, 778.870 295.069, 926.953 276.874, 945.995 225.486, 852.290 335.937, 750.831 "
fill = "none" stroke = "black"/>
</g>
<g>
<polygon points = "231.068, 266.644 170.755, 272.467 114.215, 238.129 125.032, 173.336 133.722, 168.382 219.845, 169.209 "
fill = "none" stroke = "black"/>
</g>
<g>
<polygon points = "379.373, 905.114 295.069, 926.953 340.850, 778.870 388.579, 807.410 420.106, 862.819 "
fill = "none" stroke = "black"/>
</g>
<g>
<polygon points = "570.917, 756.094 497.695, 774.894 447.039, 702.729 435.164, 661.080 570.770, 687.948 "
fill = "none" stroke = "black"/>
</g>
<g>
<polygon points = "960.053, 196.733 881.073, 159.481 913.510, 87.763 916.951, 85.192 1000.000, 104.967 1000.000, 210.654 "
fill = "none" stroke = "black"/>
</g>
<g>
<polygon points = "475.740, 505.665 427.587, 411.919 445.604, 371.451 553.383, 406.702 529.335, 475.488 "
fill = "none" stroke = "black"/>
</g>
<g>
<polygon points = "433.182, 297.369 455.619, 276.518 509.750, 290.186 556.428, 379.947 563.940, 399.684 553.383, 406.702 445.604, 371.451 "
fill = "none" stroke = "black"/>
</g>
<g>
<polygon points = "595.688, 876.497 604.758, 839.274 747.486, 826.477 689.441, 932.058 613.520, 904.995 "
fill = "none" stroke = "black"/>
</g>
<g>
<polygon points = "654.826, 74.529 770.745, 67.798 771.215, 90.755 762.063, 132.211 694.517, 159.075 648.690, 145.825 620.472, 109.208 "
fill = "none" stroke = "black"/>
</g>
<g>
<polygon points = "388.414, 15.408 345.015, 76.854 252.903, 85.136 240.401, 0.000 389.449, 0.000 "
fill = "none" stroke = "black"/>
</g>
<g>
<polygon points = "119.899, 368.019 66.248, 486.868 0.000, 507.424 0.000, 397.120 "
fill = "none" stroke = "black"/>
</g>
<g>
<polygon points = "75.835, 160.889 125.032, 173.336 114.215, 238.129 23.367, 253.914 0.000, 251.957 0.000, 162.601 "
fill = "none" stroke = "black"/>
</g>
<g>
<polygon points = "276.412, 948.174 276.874, 945.995 295.069, 926.953 379.373, 905.114 412.529, 1000.000 269.988, 1000.000 "
fill = "none" stroke = "black"/>
</g>
<g>
<polygon points = "955.240, 1000.000 894.733, 942.765 929.860, 858.289 1000.000, 906.784 1000.000, 1000.000 "
fill = "none" stroke = "black"/>
</g>
<g>
<polygon points = "666.989, 280.300 664.298, 253.369 674.501, 248.082 758.116, 255.768 800.176, 351.294 698.430, 351.288 "
fill = "none" stroke = "black"/>
</g>
<g>
<polygon points = "554.541, 489.372 674.559, 495.387 552.139, 609.967 506.567, 602.233 "
fill = "none" stroke = "black"/>
</g>
<g>
<polygon points = "389.425, 443.302 385.295, 447.948 252.912, 353.768 270.059, 294.540 336.908, 299.304 "
fill = "none" stroke = "black"/>
</g>
<g>
<polygon points = "37.249, 956.327 57.843, 806.021 132.141, 784.586 166.582, 809.667 167.225, 814.714 144.387, 841.373 "
fill = "none" stroke = "black"/>
</g>
<g>
<polygon points = "23.367, 253.914 114.215, 238.129 170.755, 272.467 136.522, 357.977 120.398, 367.435 "
fill = "none" stroke = "black"/>
</g>
<g>
<polygon points = "687.753, 697.351 689.075, 733.564 594.174, 789.349 570.917, 756.094 570.770, 687.948 599.583, 662.338 "
fill = "none" stroke = "black"/>
</g>
<g>
<polygon points = "234.040, 668.729 230.842, 664.601 275.431, 544.102 320.692, 536.382 358.955, 640.792 "
fill = "none" stroke = "black"/>
</g>
<g>
<polygon points = "496.430, 969.174 573.940, 878.389 595.688, 876.497 613.520, 904.995 601.118, 1000.000 492.068, 1000.000 "
fill = "none" stroke = "black"/>
</g>
<g>
<polygon points = "237.703, 100.620 228.248, 160.103 219.845, 169.209 133.722, 168.382 122.346, 44.328 "
fill = "none" stroke = "black"/>
</g>
<g>
<polygon points = "815.482, 905.521 802.542, 909.957 748.050, 826.256 747.869, 815.853 783.902, 754.726 861.994, 791.137 "
fill = "none" stroke = "black"/>
</g>
<g>
<polygon points = "105.883, 591.156 129.402, 590.661 224.322, 663.101 119.507, 753.523 "
fill = "none" stroke = "black"/>
</g>
<g>
<polygon points = "144.387, 841.373 167.225, 814.714 225.486, 852.290 276.874, 945.995 276.412, 948.174 177.170, 945.242 "
fill = "none" stroke = "black"/>
</g>
<g>
<polygon points = "762.997, 645.787 687.753, 697.351 599.583, 662.338 600.120, 659.219 682.640, 576.783 "
fill = "none" stroke = "black"/>
</g>
<g>
<polygon points = "916.951, 85.192 913.510, 87.763 771.215, 90.755 770.745, 67.798 798.240, 0.000 867.570, 0.000 "
fill = "none" stroke = "black"/>
</g>
<g>
<polygon points = "929.860, 858.289 872.503, 785.127 883.316, 733.256 932.031, 724.534 1000.000, 903.128 1000.000, 906.784 "
fill = "none" stroke = "black"/>
</g>
<g>
<polygon points = "906.359, 524.774 862.434, 519.644 842.592, 436.737 1000.000, 405.315 1000.000, 411.689 "
fill = "none" stroke = "black"/>
</g>
<g>
<polygon points = "66.248, 486.868 119.899, 368.019 120.398, 367.435 136.522, 357.977 239.817, 370.853 240.089, 373.417 234.469, 394.178 69.857, 490.149 68.944, 490.297 "
fill = "none" stroke = "black"/>
</g>
<g>
<polygon points = "66.248, 486.868 68.944, 490.297 89.000, 588.543 0.000, 648.995 0.000, 507.424 "
fill = "none" stroke = "black"/>
</g>
<g>
<polygon points = "570.917, 756.094 594.174, 789.349 604.758, 839.274 595.688, 876.497 573.940, 878.389 485.046, 829.845 497.695, 774.894 "
fill = "none" stroke = "black"/>
</g>
<g>
<polygon points = "57.843, 806.021 37.249, 956.327 15.527, 994.524 11.959, 1000.000 0.000, 1000.000 0.000, 744.772 "
fill = "none" stroke = "black"/>
</g>
<g>
<polygon points = "118.195, 755.973 119.507, 753.523 224.322, 663.101 230.842, 664.601 234.040, 668.729 253.369, 736.019 166.582, 809.667 132.141, 784.586 "
fill = "none" stroke = "black"/>
</g>
<g>
<polygon points = "426.188, 165.601 455.994, 205.740 456.211, 207.589 449.639, 257.633 339.704, 216.087 317.258, 175.547 363.512, 130.986 "
fill = "none" stroke = "black"/>
</g>
<g>
<polygon points = "858.900, 636.904 841.848, 671.175 770.666, 650.198 766.591, 645.826 782.199, 561.864 861.813, 520.464 "
fill = "none" stroke = "black"/>
</g>
<g>
<polygon points = "89.000, 588.543 105.883, 591.156 119.507, 753.523 118.195, 755.973 0.000, 651.847 0.000, 648.995 "
fill = "none" stroke = "black"/>
</g>
<g>
<polygon points = "426.188, 165.601 458.680, 72.155 530.897, 77.746 562.616, 106.974 455.994, 205.740 "
fill = "none" stroke = "black"/>
</g>
<g>
<polygon points = "868.032, 367.084 846.129, 270.729 1000.000, 300.522 1000.000, 344.668 "
fill = "none" stroke = "black"/>
</g>
<g>
<polygon points = "913.510, 87.763 881.073, 159.481 788.122, 177.732 762.063, 132.211 771.215, 90.755 "
fill = "none" stroke = "black"/>
</g>
<g>
<polygon points = "929.860, 858.289 894.733, 942.765 815.482, 905.521 861.994, 791.137 872.503, 785.127 "
fill = "none" stroke = "black"/>
</g>
<g>
<polygon points = "932.031, 724.534 991.169, 622.934 994.209, 619.480 1000.000, 618.177 1000.000, 903.128 "
fill = "none" stroke = "black"/>
</g>
<g>
<polygon points = "694.517, 159.075 674.501, 248.082 664.298, 253.369 562.696, 270.051 591.881, 189.663 648.690, 145.825 "
fill = "none" stroke = "black"/>
</g>
<g>
<polygon points = "23.367, 253.914 120.398, 367.435 119.899, 368.019 0.000, 397.120 0.000, 251.957 "
fill = "none" stroke = "black"/>
</g>
<g>
<polygon points = "994.209, 619.480 906.359, 524.774 1000.000, 411.689 1000.000, 618.177 "
fill = "none" stroke = "black"/>
</g>
<g>
<polygon points = "445.604, 371.451 427.587, 411.919 389.425, 443.302 336.908, 299.304 433.182, 297.369 "
fill = "none" stroke = "black"/>
</g>
<g>
<polygon points = "252.903, 85.136 237.703, 100.620 122.346, 44.328 88.023, 0.000 240.401, 0.000 "
fill = "none" stroke = "black"/>
</g>
<g>
<polygon points = "335.937, 750.831 225.486, 852.290 167.225, 814.714 166.582, 809.667 253.369, 736.019 338.863, 730.996 "
fill = "none" stroke = "black"/>
</g>
<g>
<polygon points = "75.835, 160.889 0.000, 162.601 0.000, 0.000 47.673, 0.000 "
fill = "none" stroke = "black"/>
</g>
<g>
<polygon points = "556.428, 379.947 509.750, 290.186 562.696, 270.051 664.298, 253.369 666.989, 280.300 "
fill = "none" stroke = "black"/>
</g>
<g>
<polygon points = "136.522, 357.977 170.755, 272.467 231.068, 266.644 264.925, 288.634 270.059, 294.540 252.912, 353.768 239.817, 370.853 "
fill = "none" stroke = "black"/>
</g>
<g>
<polygon points = "994.209, 619.480 991.169, 622.934 858.900, 636.904 861.813, 520.464 862.434, 519.644 906.359, 524.774 "
fill = "none" stroke = "black"/>
</g>
<g>
<polygon points = "691.139, 488.510 727.792, 488.468 782.199, 561.864 766.591, 645.826 762.997, 645.787 682.640, 576.783 687.674, 492.331 "
fill = "none" stroke = "black"/>
</g>
<g>
<polygon points = "842.592, 436.737 835.028, 429.431 844.469, 377.721 868.032, 367.084 1000.000, 344.668 1000.000, 405.315 "
fill = "none" stroke = "black"/>
</g>
<g>
<polygon points = "562.696, 270.051 509.750, 290.186 455.619, 276.518 449.639, 257.633 456.211, 207.589 591.881, 189.663 "
fill = "none" stroke = "black"/>
</g>
<g>
<polygon points = "231.068, 266.644 219.845, 169.209 228.248, 160.103 317.258, 175.547 339.704, 216.087 264.925, 288.634 "
fill = "none" stroke = "black"/>
</g>
<g>
<polygon points = "385.295, 447.948 389.425, 443.302 427.587, 411.919 475.740, 505.665 425.753, 576.799 369.213, 518.692 "
fill = "none" stroke = "black"/>
</g>
<g>
<polygon points = "563.940, 399.684 556.428, 379.947 666.989, 280.300 698.430, 351.288 627.635, 421.371 "
fill = "none" stroke = "black"/>
</g>
<g>
<polygon points = "429.082, 862.191 485.046, 829.845 573.940, 878.389 496.430, 969.174 "
fill = "none" stroke = "black"/>
</g>
<g>
<polygon points = "230.837, 517.786 234.469, 394.178 240.089, 373.417 339.959, 522.019 320.692, 536.382 275.431, 544.102 234.265, 528.802 "
fill = "none" stroke = "black"/>
</g>
<g>
<polygon points = "447.039, 702.729 388.579, 807.410 340.850, 778.870 335.937, 750.831 338.863, 730.996 391.056, 668.166 420.848, 648.005 435.164, 661.080 "
fill = "none" stroke = "black"/>
</g>
<g>
<polygon points = "762.997, 645.787 766.591, 645.826 770.666, 650.198 783.902, 754.726 747.869, 815.853 689.075, 733.564 687.753, 697.351 "
fill = "none" stroke = "black"/>
</g>
<g>
<polygon points = "554.541, 489.372 529.335, 475.488 553.383, 406.702 563.940, 399.684 627.635, 421.371 679.742, 461.544 691.139, 488.510 687.674, 492.331 674.559, 495.387 "
fill = "none" stroke = "black"/>
</g>
<g>
<polygon points = "118.195, 755.973 132.141, 784.586 57.843, 806.021 0.000, 744.772 0.000, 651.847 "
fill = "none" stroke = "black"/>
</g>
<g>
<polygon points = "475.740, 505.665 529.335, 475.488 554.541, 489.372 506.567, 602.233 429.780, 619.701 425.753, 576.799 "
fill = "none" stroke = "black"/>
</g>
<g>
<polygon points = "654.826, 74.529 620.472, 109.208 562.616, 106.974 530.897, 77.746 569.992, 0.000 632.838, 0.000 "
fill = "none" stroke = "black"/>
</g>
<g>
<polygon points = "815.482, 905.521 894.733, 942.765 955.240, 1000.000 780.348, 1000.000 779.743, 996.504 802.542, 909.957 "
fill = "none" stroke = "black"/>
</g>
<g>
<polygon points = "379.373, 905.114 420.106, 862.819 429.082, 862.191 496.430, 969.174 492.068, 1000.000 412.529, 1000.000 "
fill = "none" stroke = "black"/>
</g>
<g>
<polygon points = "37.249, 956.327 144.387, 841.373 177.170, 945.242 15.527, 994.524 "
fill = "none" stroke = "black"/>
</g>
<g>
<polygon points = "234.469, 394.178 230.837, 517.786 69.857, 490.149 "
fill = "none" stroke = "black"/>
</g>
<g>
<circle cx = "586.501" cy = "684.622" r = "3" />
<circle cx = "788.647" cy = "810.408" r = "3" />
<circle cx = "194.164" cy = "653.071" r = "3" />
<circle cx = "297.002" cy = "654.279" r = "3" />
<circle cx = "668.422" cy = "923.018" r = "3" />
<circle cx = "304.365" cy = "132.273" r = "3" />
<circle cx = "539.190" cy = "730.712" r = "3" />
<circle cx = "621.980" cy = "988.094" r = "3" />
<circle cx = "282.342" cy = "525.355" r = "3" />
<circle cx = "653.387" cy = "435.895" r = "3" />
<circle cx = "533.558" cy = "174.497" r = "3" />
<circle cx = "847.071" cy = "273.141" r = "3" />
<circle cx = "777.318" cy = "635.886" r = "3" />
<circle cx = "665.072" cy = "250.932" r = "3" />
<circle cx = "605.643" cy = "23.437" r = "3" />
<circle cx = "190.329" cy = "954.771" r = "3" />
<circle cx = "907.329" cy = "60.233" r = "3" />
<circle cx = "841.421" cy = "262.509" r = "3" />
<circle cx = "644.458" cy = "861.826" r = "3" />
<circle cx = "702.045" cy = "499.160" r = "3" />
<circle cx = "884.553" cy = "746.346" r = "3" />
<circle cx = "254.120" cy = "704.566" r = "3" />
<circle cx = "63.218" cy = "114.278" r = "3" />
<circle cx = "459.816" cy = "867.263" r = "3" />
<circle cx = "153.946" cy = "584.894" r = "3" />
<circle cx = "783.277" cy = "320.826" r = "3" />
<circle cx = "330.538" cy = "283.452" r = "3" />
<circle cx = "482.927" cy = "15.199" r = "3" />
<circle cx = "420.396" cy = "92.625" r = "3" />
<circle cx = "304.273" cy = "872.485" r = "3" />
<circle cx = "142.933" cy = "254.119" r = "3" />
<circle cx = "399.108" cy = "901.804" r = "3" />
<circle cx = "520.587" cy = "824.605" r = "3" />
<circle cx = "877.253" cy = "186.538" r = "3" />
<circle cx = "455.757" cy = "524.670" r = "3" />
<circle cx = "481.516" cy = "445.912" r = "3" />
<circle cx = "648.987" cy = "912.333" r = "3" />
<circle cx = "610.951" cy = "114.855" r = "3" />
<circle cx = "292.692" cy = "2.428" r = "3" />
<circle cx = "30.730" cy = "487.463" r = "3" />
<circle cx = "32.503" cy = "235.682" r = "3" />
<circle cx = "420.210" cy = "983.265" r = "3" />
<circle cx = "856.484" cy = "896.870" r = "3" />
<circle cx = "653.390" cy = "378.014" r = "3" />
<circle cx = "553.073" cy = "648.906" r = "3" />
<circle cx = "316.744" cy = "476.998" r = "3" />
<circle cx = "89.219" cy = "847.516" r = "3" />
<circle cx = "59.559" cy = "391.402" r = "3" />
<circle cx = "622.450" cy = "824.385" r = "3" />
<circle cx = "246.974" cy = "672.613" r = "3" />
<circle cx = "544.149" cy = "977.934" r = "3" />
<circle cx = "144.347" cy = "106.838" r = "3" />
<circle cx = "765.657" cy = "859.715" r = "3" />
<circle cx = "156.423" cy = "702.523" r = "3" />
<circle cx = "190.924" cy = "934.645" r = "3" />
<circle cx = "651.939" cy = "750.126" r = "3" />
<circle cx = "820.491" cy = "110.568" r = "3" />
<circle cx = "900.187" cy = "833.661" r = "3" />
<circle cx = "893.625" cy = "608.050" r = "3" />
<circle cx = "146.595" cy = "539.766" r = "3" />
<circle cx = "66.499" cy = "602.744" r = "3" />
<circle cx = "536.045" cy = "884.810" r = "3" />
<circle cx = "8.790" cy = "836.496" r = "3" />
<circle cx = "177.237" cy = "726.650" r = "3" />
<circle cx = "364.199" cy = "194.380" r = "3" />
<circle cx = "817.376" cy = "712.920" r = "3" />
<circle cx = "135.468" cy = "704.282" r = "3" />
<circle cx = "475.451" cy = "111.768" r = "3" />
<circle cx = "840.350" cy = "307.853" r = "3" />
<circle cx = "821.559" cy = "161.348" r = "3" />
<circle cx = "832.358" cy = "886.838" r = "3" />
<circle cx = "981.437" cy = "802.739" r = "3" />
<circle cx = "577.312" cy = "231.196" r = "3" />
<circle cx = "16.374" cy = "428.313" r = "3" />
<circle cx = "947.698" cy = "652.826" r = "3" />
<circle cx = "334.299" cy = "470.596" r = "3" />
<circle cx = "187.779" cy = "17.834" r = "3" />
<circle cx = "261.233" cy = "825.631" r = "3" />
<circle cx = "29.894" cy = "120.111" r = "3" />
<circle cx = "602.257" cy = "383.123" r = "3" />
<circle cx = "160.073" cy = "431.642" r = "3" />
<circle cx = "881.191" cy = "714.517" r = "3" />
<circle cx = "702.263" cy = "691.522" r = "3" />
<circle cx = "878.312" cy = "531.341" r = "3" />
<circle cx = "539.223" cy = "217.368" r = "3" />
<circle cx = "286.084" cy = "237.631" r = "3" />
<circle cx = "401.631" cy = "552.472" r = "3" />
<circle cx = "613.555" cy = "395.658" r = "3" />
<circle cx = "503.939" cy = "943.603" r = "3" />
<circle cx = "228.077" cy = "561.824" r = "3" />
<circle cx = "429.789" cy = "850.494" r = "3" />
<circle cx = "700.867" cy = "821.523" r = "3" />
<circle cx = "557.516" cy = "560.246" r = "3" />
<circle cx = "69.500" cy = "779.163" r = "3" />
<circle cx = "517.101" cy = "633.616" r = "3" />
<circle cx = "538.627" cy = "43.208" r = "3" />
<circle cx = "799.169" cy = "957.461" r = "3" />
<circle cx = "466.791" cy = "966.988" r = "3" />
<circle cx = "184.784" cy = "936.583" r = "3" />
<circle cx = "158.259" cy = "559.773" r = "3" />
</g>
</svg>
